<svg width="172" height="69" viewBox="0 0 172 69" fill="none" xmlns="http://www.w3.org/2000/svg">
<path d="M1.14 14.7601L5.7 14.8741L11.514 14.7221C14.3007 14.7221 16.5807 15.3175 18.354 16.5081C20.1273 17.6988 21.014 19.5228 21.014 21.9801C21.014 25.6028 19.1773 28.0475 15.504 29.3141C16.036 30.0235 16.872 31.1635 18.012 32.7341C20.4693 36.2301 22.1287 38.3835 22.99 39.1941C23.8767 40.0048 24.89 40.4608 26.03 40.5621L26.524 41.8921L23.712 41.7781L19.912 41.8541C19.4307 41.1955 18.1513 39.2955 16.074 36.1541C14.022 33.0128 12.6413 31.0115 11.932 30.1501C11.8307 30.0488 11.6913 29.9981 11.514 29.9981H7.866V38.8141C7.866 39.3208 8.094 39.6755 8.55 39.8781C9.006 40.0555 9.88 40.1948 11.172 40.2961L11.514 41.9681C8.246 41.8921 6.574 41.8541 6.498 41.8541L1.634 41.9681L1.33 40.2961C2.74867 40.1441 3.61 40.0048 3.914 39.8781C4.24333 39.7261 4.408 39.3715 4.408 38.8141V17.9141C4.408 17.4075 4.218 17.0655 3.838 16.8881C3.48333 16.6855 2.698 16.5335 1.482 16.4321L1.14 14.7601ZM7.866 17.1541V28.1741C8.44867 28.2501 9.28467 28.2881 10.374 28.2881C15.0607 28.2881 17.404 26.1981 17.404 22.0181C17.404 20.1941 16.8087 18.8261 15.618 17.9141C14.4273 16.9768 12.882 16.5081 10.982 16.5081C9.33533 16.5081 8.398 16.5841 8.17 16.7361C7.96733 16.8628 7.866 17.0021 7.866 17.1541ZM42.4552 32.6201H31.4352V33.1141C31.4352 34.9635 31.9545 36.5721 32.9932 37.9401C34.0319 39.2828 35.4125 39.9541 37.1352 39.9541C38.8579 39.9541 40.2765 39.3968 41.3912 38.2821C41.4672 38.2061 41.5305 38.1681 41.5812 38.1681C41.6319 38.1681 41.6952 38.2061 41.7712 38.2821L42.6072 39.2321C40.7072 41.2841 38.5032 42.3101 35.9952 42.3101C33.5125 42.3101 31.5492 41.5248 30.1052 39.9541C28.6865 38.3835 27.9772 36.2935 27.9772 33.6841C27.9772 31.0495 28.7879 28.9595 30.4092 27.4141C32.0305 25.8435 33.8799 25.0581 35.9572 25.0581C38.0345 25.0581 39.6685 25.6915 40.8592 26.9581C42.0499 28.1995 42.6452 29.9475 42.6452 32.2021C42.6452 32.4808 42.5819 32.6201 42.4552 32.6201ZM38.8452 30.8341C38.8452 28.0475 37.7685 26.6541 35.6152 26.6541C34.4752 26.6541 33.5505 27.0595 32.8412 27.8701C32.1319 28.6555 31.7012 29.6435 31.5492 30.8341H38.8452ZM61.0746 37.4841C61.0746 39.1308 61.6319 39.9541 62.7466 39.9541H63.2026L63.8486 39.9161L64.1146 41.1321L61.4166 41.5881C60.7833 41.7148 59.8586 41.9555 58.6426 42.3101C58.3133 42.3101 58.1486 42.2088 58.1486 42.0061L58.0346 39.7261C57.5786 40.3595 56.8313 40.9548 55.7926 41.5121C54.7539 42.0441 53.6519 42.3101 52.4866 42.3101C50.4093 42.3101 48.7119 41.6008 47.3946 40.1821C46.0773 38.7381 45.4186 36.8001 45.4186 34.3681C45.4186 31.3788 46.2293 29.0861 47.8506 27.4901C49.4719 25.8688 51.4226 25.0581 53.7026 25.0581C55.2479 25.0581 56.6286 25.3495 57.8446 25.9321V18.2941C57.8446 16.7995 57.1606 16.0521 55.7926 16.0521C55.4633 16.0521 55.1339 16.0901 54.8046 16.1661L54.4626 15.0261C57.0719 14.2661 59.0479 13.5821 60.3906 12.9741C60.8466 12.9741 61.0746 13.2148 61.0746 13.6961V37.4841ZM57.8446 30.2641C57.8446 29.1495 57.4519 28.2755 56.6666 27.6421C55.8813 26.9835 54.7539 26.6541 53.2846 26.6541C51.8153 26.6541 50.7133 27.2621 49.9786 28.4781C49.2439 29.6941 48.8766 31.3281 48.8766 33.3801C48.8766 35.4068 49.3453 37.0535 50.2826 38.3201C51.2453 39.5615 52.4739 40.1821 53.9686 40.1821C54.5766 40.1821 55.1339 40.0935 55.6406 39.9161C56.1726 39.7135 56.5273 39.5488 56.7046 39.4221C56.9326 39.2701 57.3126 39.0041 57.8446 38.6241V30.2641Z" fill="#AF2A2A"/>
<path d="M15.03 41.8541C17.47 41.8541 19.3 42.3041 20.52 43.2041C21.76 44.1041 22.38 45.4141 22.38 47.1341C22.38 48.0741 22.12 48.9241 21.6 49.6841C21.08 50.4241 20.32 50.9941 19.32 51.3941C20.06 51.6341 20.74 51.9741 21.36 52.4141C22 52.8541 22.51 53.4241 22.89 54.1241C23.29 54.8241 23.49 55.6741 23.49 56.6741C23.49 57.8941 23.25 58.9041 22.77 59.7041C22.31 60.5041 21.7 61.1341 20.94 61.5941C20.18 62.0541 19.34 62.3841 18.42 62.5841C17.5 62.7641 16.58 62.8541 15.66 62.8541H4.56V41.8541H15.03ZM15 44.9741H7.8V50.4341H15.36C16.34 50.4141 17.2 50.1741 17.94 49.7141C18.7 49.2341 19.08 48.5541 19.08 47.6741C19.08 46.6941 18.68 46.0041 17.88 45.6041C17.1 45.1841 16.14 44.9741 15 44.9741ZM15.51 53.5841H7.8V59.7341H15.66C16.98 59.7341 18.06 59.4841 18.9 58.9841C19.76 58.4641 20.19 57.6741 20.19 56.6141C20.19 55.8341 19.95 55.2241 19.47 54.7841C18.99 54.3441 18.39 54.0341 17.67 53.8541C16.95 53.6741 16.23 53.5841 15.51 53.5841ZM42.5951 50.7041C42.2351 50.5041 41.7951 50.3441 41.2751 50.2241C40.7551 50.1041 40.2551 50.0441 39.7751 50.0441C38.7751 50.0441 37.8851 50.2641 37.1051 50.7041C36.3251 51.1441 35.7051 51.7241 35.2451 52.4441C34.8051 53.1641 34.5851 53.9241 34.5851 54.7241V62.8541H31.4651V47.1041H34.5851V50.4041C35.1851 49.3441 36.0051 48.4741 37.0451 47.7941C38.1051 47.1141 39.2051 46.7741 40.3451 46.7741C40.9251 46.7741 41.4951 46.8341 42.0551 46.9541C42.6151 47.0741 43.0651 47.2441 43.4051 47.4641L42.5951 50.7041ZM67.1672 54.9641C67.1672 56.5641 66.7572 57.9841 65.9372 59.2241C65.1172 60.4441 63.9872 61.4041 62.5472 62.1041C61.1072 62.8041 59.4672 63.1541 57.6272 63.1541C55.7672 63.1541 54.1172 62.8041 52.6772 62.1041C51.2372 61.4041 50.1072 60.4441 49.2872 59.2241C48.4672 57.9841 48.0572 56.5641 48.0572 54.9641C48.0572 53.3641 48.4672 51.9541 49.2872 50.7341C50.1072 49.4941 51.2372 48.5241 52.6772 47.8241C54.1172 47.1241 55.7672 46.7741 57.6272 46.7741C59.4672 46.7741 61.1072 47.1241 62.5472 47.8241C63.9872 48.5241 65.1172 49.4941 65.9372 50.7341C66.7572 51.9541 67.1672 53.3641 67.1672 54.9641ZM64.0172 54.9641C64.0372 53.9041 63.7672 52.9741 63.2072 52.1741C62.6472 51.3541 61.8772 50.7241 60.8972 50.2841C59.9172 49.8241 58.8272 49.5941 57.6272 49.5941C56.4072 49.5941 55.3072 49.8241 54.3272 50.2841C53.3472 50.7241 52.5672 51.3541 51.9872 52.1741C51.4272 52.9741 51.1672 53.9041 51.2072 54.9641C51.1672 56.0041 51.4272 56.9341 51.9872 57.7541C52.5672 58.5541 53.3472 59.1841 54.3272 59.6441C55.3072 60.1041 56.4072 60.3341 57.6272 60.3341C58.8272 60.3341 59.9172 60.1041 60.8972 59.6441C61.8772 59.1841 62.6472 58.5541 63.2072 57.7541C63.7672 56.9341 64.0372 56.0041 64.0172 54.9641ZM74.9074 62.8541V40.6541H77.8174V54.9641L87.3874 47.1041H91.6474L83.4274 53.7041L91.7974 62.8541H87.8374L81.1474 55.5341L77.8174 58.1741V62.8541H74.9074ZM113.943 60.7841H113.913C113.373 61.1841 112.693 61.5741 111.873 61.9541C111.053 62.3141 110.153 62.6041 109.173 62.8241C108.213 63.0441 107.223 63.1541 106.203 63.1541C104.263 63.1541 102.553 62.8141 101.073 62.1341C99.5928 61.4341 98.4328 60.4841 97.5928 59.2841C96.7728 58.0641 96.3628 56.6841 96.3628 55.1441C96.3628 53.3841 96.8028 51.8841 97.6828 50.6441C98.5628 49.3841 99.7228 48.4241 101.163 47.7641C102.623 47.0841 104.213 46.7441 105.933 46.7441C107.533 46.7441 108.993 47.0741 110.313 47.7341C111.633 48.3741 112.683 49.2641 113.463 50.4041C114.243 51.5441 114.633 52.8741 114.633 54.3941L114.603 55.8941H99.5128C99.7728 57.2541 100.553 58.3341 101.853 59.1341C103.153 59.9141 104.773 60.3041 106.713 60.3041C108.133 60.3041 109.303 60.0941 110.223 59.6741C111.163 59.2541 111.923 58.8541 112.503 58.4741L113.943 60.7841ZM105.933 49.5941C104.373 49.5941 103.003 49.8841 101.823 50.4641C100.663 51.0441 99.9228 52.0341 99.6028 53.4341H111.483V53.0441C111.383 52.3641 111.063 51.7641 110.523 51.2441C109.983 50.7241 109.303 50.3241 108.483 50.0441C107.683 49.7441 106.833 49.5941 105.933 49.5941ZM133.972 50.7041C133.612 50.5041 133.172 50.3441 132.652 50.2241C132.132 50.1041 131.632 50.0441 131.152 50.0441C130.152 50.0441 129.262 50.2641 128.482 50.7041C127.702 51.1441 127.082 51.7241 126.622 52.4441C126.182 53.1641 125.962 53.9241 125.962 54.7241V62.8541H122.842V47.1041H125.962V50.4041C126.562 49.3441 127.382 48.4741 128.422 47.7941C129.482 47.1141 130.582 46.7741 131.722 46.7741C132.302 46.7741 132.872 46.8341 133.432 46.9541C133.992 47.0741 134.442 47.2441 134.782 47.4641L133.972 50.7041ZM153.128 51.3641C152.368 50.7841 151.468 50.3041 150.428 49.9241C149.388 49.5241 148.408 49.3241 147.488 49.3241C146.908 49.3241 146.298 49.3741 145.658 49.4741C145.018 49.5741 144.478 49.7641 144.038 50.0441C143.598 50.3041 143.378 50.6941 143.378 51.2141C143.378 51.6741 143.588 52.0541 144.008 52.3541C144.448 52.6541 145.018 52.9041 145.718 53.1041C146.418 53.2841 147.198 53.4541 148.058 53.6141C148.898 53.7541 149.718 53.9341 150.518 54.1541C151.318 54.3741 152.048 54.6541 152.708 54.9941C153.368 55.3141 153.898 55.7341 154.298 56.2541C154.698 56.7741 154.898 57.4141 154.898 58.1741C154.898 59.2541 154.568 60.1641 153.908 60.9041C153.268 61.6441 152.418 62.2041 151.358 62.5841C150.298 62.9641 149.128 63.1541 147.848 63.1541C146.268 63.1541 144.788 62.9341 143.408 62.4941C142.028 62.0541 140.858 61.3041 139.898 60.2441L141.998 58.3241C142.698 59.0241 143.518 59.5741 144.458 59.9741C145.418 60.3741 146.508 60.5741 147.728 60.5741C148.308 60.5741 148.918 60.5241 149.558 60.4241C150.198 60.3041 150.738 60.1041 151.178 59.8241C151.618 59.5441 151.838 59.1341 151.838 58.5941C151.838 58.1341 151.618 57.7741 151.178 57.5141C150.738 57.2341 150.148 57.0041 149.408 56.8241C148.688 56.6441 147.908 56.4841 147.068 56.3441C145.868 56.1041 144.748 55.8241 143.708 55.5041C142.688 55.1841 141.858 54.7041 141.218 54.0641C140.598 53.4241 140.288 52.5141 140.288 51.3341C140.288 50.3941 140.608 49.5841 141.248 48.9041C141.888 48.2241 142.748 47.7041 143.828 47.3441C144.908 46.9641 146.108 46.7741 147.428 46.7741C148.248 46.7741 149.118 46.8641 150.038 47.0441C150.958 47.2041 151.828 47.4741 152.648 47.8541C153.488 48.2141 154.208 48.6941 154.808 49.2941L153.128 51.3641Z" fill="#848484"/>
</svg>
